<?xml version="1.0"?>
<svg xmlns="http://www.w3.org/2000/svg" viewBox="0 0 50 50">
    <path style="text-indent:0;text-align:start;line-height:normal;text-transform:none;block-progression:tb;-inkscape-font-specification:Sans" d="M 13 3 C 10.250421 3 8 5.2504209 8 8 C 8 10.405882 9.7272522 12.437913 12 12.90625 L 12 37.09375 C 9.7272522 37.562087 8 39.594118 8 42 C 8 44.749579 10.250421 47 13 47 C 15.749579 47 18 44.749579 18 42 C 18 39.604429 16.289544 37.573333 14.03125 37.09375 C 14.217846 33.696397 15.443921 31.95515 17.28125 30.78125 C 19.279476 29.50455 22.156357 28.964982 25.15625 28.46875 C 28.156143 27.972518 31.279467 27.502457 33.78125 25.90625 C 36.105104 24.423566 37.715025 21.858704 37.9375 17.90625 C 40.239888 17.461475 42 15.427032 42 13 C 42 10.250421 39.749579 8 37 8 C 34.250421 8 32 10.250421 32 13 C 32 15.395571 33.710456 17.426667 35.96875 17.90625 C 35.782153 21.301129 34.556071 23.046488 32.71875 24.21875 C 30.720533 25.493668 27.843857 26.003732 24.84375 26.5 C 21.843643 26.996268 18.720524 27.495325 16.21875 29.09375 C 15.376912 29.631614 14.628595 30.325468 14 31.15625 L 14 12.90625 C 16.272748 12.437913 18 10.405882 18 8 C 18 5.2504209 15.749579 3 13 3 z M 13 5 C 14.668699 5 16 6.3313011 16 8 C 16 9.6686989 14.668699 11 13 11 C 11.331301 11 10 9.6686989 10 8 C 10 6.3313011 11.331301 5 13 5 z M 37 10 C 38.668699 10 40 11.331301 40 13 C 40 14.668699 38.668699 16 37 16 C 35.331301 16 34 14.668699 34 13 C 34 11.331301 35.331301 10 37 10 z M 13 39 C 14.668699 39 16 40.331301 16 42 C 16 43.668699 14.668699 45 13 45 C 11.331301 45 10 43.668699 10 42 C 10 40.331301 11.331301 39 13 39 z" overflow="visible" font-family="Sans"/>
</svg>
