<?xml version="1.0"?>
<svg xmlns="http://www.w3.org/2000/svg" width="50" height="50" viewBox="0 0 50 50">
    <path style="text-indent:0;text-align:start;line-height:normal;text-transform:none;block-progression:tb;-inkscape-font-specification:Bitstream Vera Sans" d="M 16.28125 6 A 1.0001 1.0001 0 0 0 15.84375 6.21875 L 5.625 14.0625 A 1.0001 1.0001 0 0 0 5 15 L 5 43 A 1.0001 1.0001 0 0 0 6 44 L 36 44 A 1.0001 1.0001 0 0 0 36.03125 44 A 1.0001 1.0001 0 0 0 36.21875 43.96875 A 1.0001 1.0001 0 0 0 36.3125 43.9375 A 1.0001 1.0001 0 0 0 36.90625 43.46875 L 44.78125 33.625 A 1.0001 1.0001 0 0 0 45 33 L 45 7.1875 A 1.0001 1.0001 0 0 0 44.6875 6.28125 A 1.0001 1.0001 0 0 0 44.65625 6.21875 A 1.0001 1.0001 0 0 0 44.625 6.21875 A 1.0001 1.0001 0 0 0 44.5625 6.15625 A 1.0001 1.0001 0 0 0 44.53125 6.15625 A 1.0001 1.0001 0 0 0 44.375 6.0625 A 1.0001 1.0001 0 0 0 44.09375 6 A 1.0001 1.0001 0 0 0 44 6 L 30.25 6 L 29.84375 6 L 16.46875 6 A 1.0001 1.0001 0 0 0 16.375 6 A 1.0001 1.0001 0 0 0 16.28125 6 z M 16.78125 8 L 27.375 8 L 20.625 14 L 8.9375 14 L 16.78125 8 z M 30.375 8 L 41.5625 8 L 35.5625 14 L 23.625 14 L 30.375 8 z M 43 9.4375 L 43 32.65625 L 37 40.15625 L 37 15.4375 L 43 9.4375 z M 7 16 L 20.625 16 A 1.0001 1.0001 0 0 0 21.21875 16 L 35 16 L 35 42 L 7 42 L 7 16 z M 15.8125 20 A 1.001098 1.001098 0 0 0 16 22 L 26 22 A 1.0001 1.0001 0 1 0 26 20 L 16 20 A 1.0001 1.0001 0 0 0 15.90625 20 A 1.001098 1.001098 0 0 0 15.8125 20 z" overflow="visible" enable-background="accumulate" font-family="Bitstream Vera Sans"/>
</svg>
