<?xml version="1.0"?>
<svg xmlns="http://www.w3.org/2000/svg" viewBox="0 0 50 50" fill-rule="evenodd" clip-rule="evenodd" stroke-linejoin="round" stroke-miterlimit="1.414">
    <path d="M 7.2207031 2 C 4.3397031 2 2 4.3397031 2 7.2207031 L 2 42.779297 C 2 45.660297 4.3397031 48 7.2207031 48 L 42.779297 48 C 45.660297 48 48 45.660297 48 42.779297 L 48 7.2207031 C 48 4.3397031 45.660297 2 42.779297 2 L 7.2207031 2 z M 7.9101562 4 L 42.089844 4 C 44.248844 4 46 5.7521563 46 7.9101562 L 46 42.089844 C 46 44.247844 44.247844 46 42.089844 46 L 7.9101562 46 C 5.7521562 46 4 44.247844 4 42.089844 L 4 7.9101562 C 4 5.7521563 5.7511563 4 7.9101562 4 z M 10.21875 7 C 8.44275 7 7 8.44275 7 10.21875 L 7 36.78125 C 7 38.55725 8.44275 40 10.21875 40 L 18.78125 40 C 20.55725 40 22 38.55725 22 36.78125 L 22 10.21875 C 22 8.44275 20.55725 7 18.78125 7 L 10.21875 7 z M 31.158203 7 C 29.415203 7 28 8.4152031 28 10.158203 L 28 23.841797 C 28 25.584797 29.415203 27 31.158203 27 L 39.841797 27 C 41.584797 27 43 25.584797 43 23.841797 L 43 10.158203 C 43 8.4152031 41.584797 7 39.841797 7 L 31.158203 7 z M 10.162109 9 L 18.837891 9 C 19.479891 9 20 9.5211094 20 10.162109 L 20 36.837891 C 20 37.479891 19.479891 38 18.837891 38 L 10.162109 38 C 9.5201094 38 9 37.479891 9 36.837891 L 9 10.162109 C 9 9.5211094 9.5201094 9 10.162109 9 z M 31.513672 9 L 39.486328 9 C 40.322328 9 41 9.6776719 41 10.513672 L 41 23.486328 C 41 24.322328 40.322328 25 39.486328 25 L 31.513672 25 C 30.677672 25 30 24.322328 30 23.486328 L 30 10.513672 C 30 9.6776719 30.677672 9 31.513672 9 z"/>
</svg>
